<?xml version="1.0" encoding="UTF-8"?>
<svg id="Layer_1" data-name="Layer 1" xmlns="http://www.w3.org/2000/svg" viewBox="0 0 250.71 666.89">
  <defs>
    <style>
      .cls-1 {
        fill: none;
        stroke: #fff;
        stroke-miterlimit: 10;
        stroke-width: 9px;
      }
    </style>
  </defs>
  <path class="cls-1" d="m104.5,7.27c-11.78,7.98-20.28,14.9-27.99,22.75-8.8,8.99-13.3,16.34-16.48,26.85-3.34,10.99-4.04,22.29-2.74,43.44.6,9.58.6,19.08,0,22.94-1.33,8.52-3.23,14.55-10.13,32.17-6.49,16.56-9.26,25.3-11.18,35.43-3.12,16.4-3.91,32.69-2.58,53.07.43,6.65.49,7.52,1.87,22.4,2.44,26.22,2.8,36.65,1.63,49-1.19,12.41-2.99,16.45-12.6,28.4-8.23,10.18-9.88,13.47-13.06,26.14-8.01,32.01-8.93,75.2-2.55,118.25,4.91,32.98,13.82,59.7,21.39,64.07,1.44.81,5.4,2.2,8.17,2.85,8.42,1.95,19.93,2.28,35.16.95,2.47-.22,6.81-.57,9.64-.81,2.85-.24,7.25-.46,9.77-.46,3.96,0,4.86.08,6.41.57,2.88.92,6.81,3.75,13.28,9.53,7.76,6.98,11.75,10.15,17.54,13.93,9.91,6.43,16.37,13.66,18.57,20.69.84,2.66.84,6.19,0,8.42-1.55,4.07-3.18,5.38-8.17,6.6-5.29,1.3-12,1.79-32.69,2.36-29.7.81-41.97,1.74-54.3,4.1-12.13,2.33-20.2,5.43-27.12,10.45-8.14,5.92-13.11,11.94-14.71,17.89-.73,2.71-.68,7.63.14,10.53l.62,2.25,1.55-.16c5.21-.62,12.98-2.93,17.67-5.29,1.49-.76,5-2.77,7.79-4.53,8.06-5.02,11.32-6.33,15.61-6.33,2.74,0,11.78,1.09,24.68,2.99,21.99,3.23,25.93,3.8,31.46,4.45,10.21,1.22,14.58,1.55,23.35,1.71,11.1.19,17.21-.3,24.98-1.98,7.28-1.6,15.07-4.86,20.82-8.71,15.64-10.48,26.44-27.96,26.41-42.78-.03-10.4-4.81-17.05-25.11-34.97-11.84-10.45-15.07-14.09-15.07-17.08,0-1.55,1.19-2.77,3.42-3.42,2.12-.65,7.82-.62,15.31.05,3.99.38,7.95.52,13.98.52,7.57,0,8.74-.05,11.56-.6,3.53-.68,7.14-1.87,9.61-3.15,2.17-1.11,5.95-4.91,7.44-7.41,5-8.47,6.98-23.32,5.35-39.74-.3-3.09-.3-3.18.57-6.92,5.81-25.06,10.18-52.61,11.92-75.2.68-8.5.68-25.14.03-31.63-3.04-30.05-10.13-55.25-25.17-89.59-1.09-2.47-5.05-11.21-8.82-19.41-3.77-8.23-7.25-15.96-7.68-17.24-1.06-3.07-2.09-7.28-2.69-11.13-.65-4.29-.65-14.85.03-24.7,1.19-17.4-.19-28.26-5-39.09-1.74-3.94-3.85-7.74-8.82-15.75-5.21-8.39-6.19-10.13-7.6-13.17-2.44-5.21-3.45-10.04-2.9-13.95.57-4.07,2.93-10.59,8.14-22.42,6.33-14.42,8.33-20.96,9.45-30.54.62-5.13.41-14.04-.43-18.73-2.39-13.49-8.14-29.1-17.48-47.37-3.77-7.41-7.44-13.98-7.76-13.98-.35,0-4.02,4.37-5.62,6.71-1.93,2.77-3.42,5.76-4.26,8.44-.38,1.25-.71,2.36-.71,2.47,0,.24,2.14.73,4.48,1.06.98.14,1.38.33,1.44.68.14.68-1.63.62-4.97-.19-6.52-1.57-17.7-2.33-27.07-1.85-7.74.41-16.4,1.28-18.41,1.82-.81.24-2.39.49-3.5.6-1.85.16-1.98.14-1.87-.35.08-.41.49-.57,2.25-.81,1.19-.19,2.61-.43,3.12-.57l.95-.27-.08-1.74c-.11-2.09-.98-5.97-1.85-8.33-1.06-2.82-3.77-7.95-4.18-7.9-.08,0-1.98,1.25-4.21,2.77Z"/>
</svg>